# xmcd CD database file
#
# Track frame offsets:
#	183
#	22533
#	45170
#	63320
#	82933
#	104645
#	116733
#	134495
#	155120
#	169208
#
# Disc length: 3422 seconds
#
# Revision: 0
# Processed by: cddbd v1.4PL0 Copyright (c) Steve Scherf et al.
# Submitted via: CDex 1.50Beta6
#
DISCID=7a0d5c0a
DTITLE=Oscar Peterson - Hallelujah Time
DYEAR=1964
DGENRE=Jazz
TTITLE0=Hallelujah Time
TTITLE1=Con Alma
TTITLE2=Waltz For Debby
TTITLE3=Cubano Chant
TTITLE4=Yours is my Heart Alone
TTITLE5=London Romp
TTITLE6=My One and Only Love
TTITLE7=Nightingale
TTITLE8=Reunion Blues
TTITLE9=Jim Dawg
EXTD=YEAR: 1964
EXTT0=
EXTT1=
EXTT2=
EXTT3=
EXTT4=
EXTT5=
EXTT6=
EXTT7=
EXTT8=
EXTT9=
PLAYORDER=
